<svg xmlns="http://www.w3.org/2000/svg" width="192" height="208" viewBox="0 0 192 208"><title>Clawd failed 3</title><g transform="translate(21 34) scale(10)"><path d="M2.88,12.598 h1 L4,15 h-1 Z" fill="#DE886D"/><path d="M4.88,12.598 h1 L6,15 h-1 Z" fill="#DE886D"/><path d="M8.88,12.598 h1 L10,15 h-1 Z" fill="#DE886D"/><path d="M10.88,12.598 h1 L12,15 h-1 Z" fill="#DE886D"/><g transform="translate(-0.12 0)"><rect x="2" y="6.325" width="11" height="6.773" fill="#DE886D"/><g id="left-shoulder" transform="rotate(-13 2 10.26)"><rect id="left-hand" x="0" y="9.26" width="2" height="2" fill="#DE886D"/></g><g id="right-shoulder" transform="rotate(13 13 10.26)"><rect id="right-hand" x="13" y="9.26" width="2" height="2" fill="#DE886D"/></g><polygon id="oops-left-eye" points="4,8.91 5,8.65 5,10.065 4,10.065" fill="#000000"/><polygon id="oops-right-eye" points="10,8.65 11,8.91 11,10.065 10,10.065" fill="#000000"/></g></g></svg>
